HIERARCHY
ROOT hip
{
	OFFSET 0.000000 0.000000 0.000000 
	CHANNELS 6 Xposition Yposition Zposition Xrotation Zrotation Yrotation
	JOINT abdomen
	{
		OFFSET 0.000000 3.402643 0.000000 
		CHANNELS 3 Xrotation Zrotation Yrotation
		JOINT chest
		{
			OFFSET 0.000000 8.438565 -0.680529 
			CHANNELS 3 Xrotation Zrotation Yrotation
			JOINT neck
			{
				OFFSET 0.000000 10.207942 -0.272212 
				CHANNELS 3 Xrotation Zrotation Yrotation
				JOINT head
				{
					OFFSET 0.000000 3.130431 0.000000 
					CHANNELS 3 Xrotation Zrotation Yrotation
					End Site
					{
						OFFSET 0.000000 3.130435 0.000000 
					}
				}
			}
			JOINT lCollar
			{
				OFFSET 3.470700 6.669187 -0.816635 
				CHANNELS 3 Yrotation Zrotation Xrotation
				JOINT lShldr
				{
					OFFSET 3.198488 0.000000 0.000000 
					CHANNELS 3 Zrotation Yrotation Xrotation
					JOINT lForeArm
					{
						OFFSET 10.139888 0.000000 0.000000 
						CHANNELS 3 Yrotation Zrotation Xrotation
						JOINT lHand
						{
							OFFSET 8.370511 0.000000 0.000000 
							CHANNELS 3 Zrotation Yrotation Xrotation
							End Site
							{
								OFFSET 4.083176 0.000000 0.000000 
							}
						}
					}
				}
			}
			JOINT rCollar
			{
				OFFSET -3.470700 6.669187 -0.816635 
				CHANNELS 3 Yrotation Zrotation Xrotation
				JOINT rShldr
				{
					OFFSET -3.198488 0.000000 0.000000 
					CHANNELS 3 Zrotation Yrotation Xrotation
					JOINT rForeArm
					{
						OFFSET -10.139888 0.000000 0.000000 
						CHANNELS 3 Yrotation Zrotation Xrotation
						JOINT rHand
						{
							OFFSET -8.370511 0.000000 0.000000 
							CHANNELS 3 Zrotation Yrotation Xrotation
							End Site
							{
								OFFSET -4.083176 0.000000 0.000000 
							}
						}
					}
				}
			}
		}
	}
	JOINT lThigh
	{
		OFFSET 5.308129 -1.633274 1.361059 
		CHANNELS 3 Xrotation Zrotation Yrotation
		JOINT lShin
		{
			OFFSET -2.041588 -20.007561 0.000000 
			CHANNELS 3 Xrotation Zrotation Yrotation
			JOINT lFoot
			{
				OFFSET 0.000000 -19.190928 -1.224953 
				CHANNELS 3 Xrotation Yrotation Zrotation
				End Site
				{
					OFFSET 0.000000 -2.449906 4.627600 
				}
			}
		}
	}
	JOINT rThigh
	{
		OFFSET -5.308129 -1.633274 1.361059 
		CHANNELS 3 Xrotation Zrotation Yrotation
		JOINT rShin
		{
			OFFSET 2.041588 -20.007561 0.000000 
			CHANNELS 3 Xrotation Zrotation Yrotation
			JOINT rFoot
			{
				OFFSET 0.000000 -19.190928 -1.224953 
				CHANNELS 3 Xrotation Yrotation Zrotation
				End Site
				{
					OFFSET 0.000000 -2.449906 4.627600 
				}
			}
		}
	}
}
MOTION
Frames: 6
Frame Time: 0.016667
-0.241804 44.331661 -0.207036 2.811170 4.438030 -20.397400 -3.818950 4.207610 -3.776890 20.351101 3.769510 -1.966610 30.867701 4.693760 -8.399250 17.204201 5.935930 -4.633300 2.000000 -2.000000 0.000000 -99.643402 -25.992100 -106.721001 135.546997 -0.110283 0.112381 0.072688 -0.090633 -171.315994 -2.000000 2.000000 0.000000 83.509201 15.257600 -103.290001 -147.177994 0.108160 0.059058 -0.054398 -0.000109 -136.882996 -13.418826 -0.748091 11.651891 26.908911 2.601924 2.124648 -20.338785 11.347182 5.965430 -14.948535 -4.251517 14.497410 21.357771 -3.232207 -1.562794 -14.996626 -4.910348 -1.311376 
-0.238338 44.338737 -0.182633 2.850500 4.476900 -20.363199 -3.887560 4.181360 -3.772300 20.253300 3.740180 -1.963110 30.941401 4.498120 -8.565300 17.244200 5.963420 -4.749550 2.000000 -2.000000 0.000000 -99.643204 -26.050600 -106.613998 135.507996 -0.110353 0.112453 0.072719 -0.090678 -171.335999 -2.000000 2.000000 0.000000 83.557503 15.296500 -103.105003 -147.216995 0.108113 0.058986 -0.054400 -0.000601 -136.707001 -13.412638 -0.821835 11.596595 26.838436 2.618010 2.119776 -20.342735 11.407912 5.970183 -14.893139 -4.309621 14.494701 21.240196 -3.223127 -1.552208 -14.940866 -4.960754 -1.313473 
-0.238715 44.346325 -0.156304 2.889420 4.408470 -20.246401 -3.928310 4.250350 -3.724490 20.184700 3.759690 -1.948160 30.975300 4.218190 -8.563760 17.243999 5.953920 -4.751770 2.000000 -2.000000 0.000000 -99.681900 -26.109100 -106.487000 135.567001 -0.110248 0.112346 0.072889 -0.090926 -171.442993 -2.000000 2.000000 0.000000 83.547798 15.394200 -103.114998 -147.061005 0.108301 0.059276 -0.054401 -0.000957 -136.580002 -13.423882 -0.739729 11.564305 26.828480 2.615280 2.109584 -20.267101 11.346503 5.922691 -14.806482 -4.271454 14.436707 21.080971 -3.228850 -1.545266 -14.938203 -4.994633 -1.342767 
-0.239091 44.354042 -0.129972 2.938120 4.340010 -20.119200 -3.969000 4.309600 -3.676070 20.125999 3.779190 -1.922850 31.000700 3.947730 -8.558270 17.243500 5.934900 -4.765980 2.000000 -2.000000 0.000000 -99.720703 -26.177401 -106.360001 135.615997 -0.110161 0.112256 0.073060 -0.091174 -171.550995 -2.000000 2.000000 0.000000 83.538101 15.482100 -103.134003 -146.914001 0.108478 0.059549 -0.054404 -0.001312 -136.453003 -13.425053 -0.672649 11.532050 26.829496 2.608326 2.117695 -20.216385 11.299911 5.888343 -14.720553 -4.224347 14.358084 20.980133 -3.237480 -1.528461 -14.947280 -5.031470 -1.352133 
-0.247198 44.362782 -0.114700 2.898720 4.281640 -19.949301 -3.990270 4.362650 -3.615980 20.086901 3.779170 -1.886370 31.089199 3.807640 -8.445090 17.260599 5.839330 -4.678780 2.000000 -2.000000 0.000000 -99.671898 -26.226200 -106.360001 135.723007 -0.109969 0.112060 0.072920 -0.090971 -171.462997 -2.000000 2.000000 0.000000 83.547897 15.530900 -103.153999 -146.787003 0.108632 0.059784 -0.054409 -0.001859 -136.257996 -13.368983 -0.625764 11.477089 26.817659 2.626630 2.112257 -20.197847 11.174632 5.832694 -14.601790 -4.193994 14.302357 20.947739 -3.253479 -1.521890 -15.017859 -5.131287 -1.387374 
-0.255306 44.371532 -0.099429 2.869130 4.223230 -19.778601 -4.001730 4.415760 -3.554950 20.057501 3.788920 -1.859080 31.178499 3.667250 -8.342110 17.287500 5.743520 -4.580920 2.000000 -2.000000 0.000000 -99.632896 -26.275101 -106.369003 135.839996 -0.109760 0.111845 0.072796 -0.090791 -171.384995 -2.000000 2.000000 0.000000 83.547997 15.579800 -103.182999 -146.669998 0.108774 0.060001 -0.054416 -0.002406 -136.061996 -13.314730 -0.596895 11.394128 26.846668 2.631175 2.112858 -20.184822 11.084731 5.775701 -14.423413 -4.194142 14.231065 20.828733 -3.253813 -1.512934 -15.066217 -5.234558 -1.423693 
